<?xml version="1.0" encoding="UTF-8" standalone="no"?>
<!DOCTYPE svg PUBLIC "-//W3C//DTD SVG 1.1//EN"
 "http://www.w3.org/Graphics/SVG/1.1/DTD/svg11.dtd">
<!-- Generated by graphviz version 2.28.0 (20130121.0301)
 -->
<!-- Title: controllers_diagram Pages: 1 -->
<svg width="633pt" height="493pt"
 viewBox="0.00 0.00 632.94 493.26" xmlns="http://www.w3.org/2000/svg" xmlns:xlink="http://www.w3.org/1999/xlink">
<g id="graph1" class="graph" transform="scale(1 1) rotate(0) translate(4 489.261)">
<title>controllers_diagram</title>
<polygon fill="white" stroke="white" points="-4,5 -4,-489.261 629.936,-489.261 629.936,5 -4,5"/>
<!-- _diagram_info -->
<g id="node1" class="node"><title>_diagram_info</title>
<text text-anchor="start" x="425.56" y="-145" font-family="Times,serif" font-size="13.00">Controllers diagram</text>
<text text-anchor="start" x="425.56" y="-129.4" font-family="Times,serif" font-size="13.00">Date: Jan 20 2013 &#45; 21:08</text>
<text text-anchor="start" x="425.56" y="-113.8" font-family="Times,serif" font-size="13.00">Migration version: 20130120125815</text>
<text text-anchor="start" x="425.56" y="-98.2" font-family="Times,serif" font-size="13.00">Generated by RailRoady 1.1.0</text>
<text text-anchor="start" x="425.56" y="-82.6" font-family="Times,serif" font-size="13.00">http://railroady.prestonlee.com</text>
</g>
<!-- AlertsController -->
<g id="node2" class="node"><title>AlertsController</title>
<polyline fill="none" stroke="black" points="11.5603,-92.3362 95.3191,-92.3362 "/>
<path fill="none" stroke="black" d="M95.3191,-92.3362C101.319,-92.3362 107.319,-98.3362 107.319,-104.336"/>
<polyline fill="none" stroke="black" points="107.319,-104.336 107.319,-279.536 "/>
<path fill="none" stroke="black" d="M107.319,-279.536C107.319,-285.536 101.319,-291.536 95.3191,-291.536"/>
<polyline fill="none" stroke="black" points="95.3191,-291.536 11.5603,-291.536 "/>
<path fill="none" stroke="black" d="M11.5603,-291.536C5.5603,-291.536 -0.439697,-285.536 -0.439697,-279.536"/>
<polyline fill="none" stroke="black" points="-0.439697,-279.536 -0.439697,-104.336 "/>
<path fill="none" stroke="black" d="M-0.439697,-104.336C-0.439697,-98.3362 5.5603,-92.3362 11.5603,-92.3362"/>
<text text-anchor="middle" x="53.4397" y="-273.536" font-family="Times,serif" font-size="14.00">AlertsController</text>
<polyline fill="none" stroke="black" points="-0.439697,-266.736 107.319,-266.736 "/>
<text text-anchor="start" x="7.5603" y="-248.736" font-family="Times,serif" font-size="14.00">create</text>
<text text-anchor="start" x="7.5603" y="-231.936" font-family="Times,serif" font-size="14.00">destroy</text>
<text text-anchor="start" x="7.5603" y="-215.136" font-family="Times,serif" font-size="14.00">edit</text>
<text text-anchor="start" x="7.5603" y="-198.336" font-family="Times,serif" font-size="14.00">index</text>
<text text-anchor="start" x="7.5603" y="-181.536" font-family="Times,serif" font-size="14.00">new</text>
<text text-anchor="start" x="7.5603" y="-164.736" font-family="Times,serif" font-size="14.00">show</text>
<text text-anchor="start" x="7.5603" y="-147.936" font-family="Times,serif" font-size="14.00">update</text>
<polyline fill="none" stroke="black" points="-0.439697,-141.136 107.319,-141.136 "/>
<polyline fill="none" stroke="black" points="-0.439697,-117.136 107.319,-117.136 "/>
<text text-anchor="start" x="7.5603" y="-99.1362" font-family="Times,serif" font-size="14.00">_layout</text>
</g>
<!-- ApplicationController -->
<g id="node3" class="node"><title>ApplicationController</title>
<polyline fill="none" stroke="black" points="127.319,-210.407 298.954,-210.407 "/>
<path fill="none" stroke="black" d="M298.954,-210.407C304.954,-210.407 310.954,-216.407 310.954,-222.407"/>
<polyline fill="none" stroke="black" points="310.954,-222.407 310.954,-296.807 "/>
<path fill="none" stroke="black" d="M310.954,-296.807C310.954,-302.807 304.954,-308.807 298.954,-308.807"/>
<polyline fill="none" stroke="black" points="298.954,-308.807 127.319,-308.807 "/>
<path fill="none" stroke="black" d="M127.319,-308.807C121.319,-308.807 115.319,-302.807 115.319,-296.807"/>
<polyline fill="none" stroke="black" points="115.319,-296.807 115.319,-222.407 "/>
<path fill="none" stroke="black" d="M115.319,-222.407C115.319,-216.407 121.319,-210.407 127.319,-210.407"/>
<text text-anchor="middle" x="213.136" y="-290.807" font-family="Times,serif" font-size="14.00">ApplicationController</text>
<polyline fill="none" stroke="black" points="115.319,-284.007 310.954,-284.007 "/>
<text text-anchor="start" x="123.319" y="-266.007" font-family="Times,serif" font-size="14.00">_one_time_conditions_valid_8?</text>
<polyline fill="none" stroke="black" points="115.319,-259.207 310.954,-259.207 "/>
<polyline fill="none" stroke="black" points="115.319,-235.207 310.954,-235.207 "/>
<text text-anchor="start" x="123.319" y="-217.207" font-family="Times,serif" font-size="14.00">_layout</text>
</g>
<!-- ApplicationController&#45;&gt;AlertsController -->
<g id="edge2" class="edge"><title>ApplicationController&#45;&gt;AlertsController</title>
<path fill="none" stroke="black" d="M115.183,-218.099C112.6,-217.005 110.044,-215.922 107.527,-214.855"/>
</g>
<!-- DomainsController -->
<g id="node4" class="node"><title>DomainsController</title>
<polyline fill="none" stroke="black" points="230.873,-0.5 330.969,-0.5 "/>
<path fill="none" stroke="black" d="M330.969,-0.5C336.969,-0.5 342.969,-6.5 342.969,-12.5"/>
<polyline fill="none" stroke="black" points="342.969,-12.5 342.969,-187.7 "/>
<path fill="none" stroke="black" d="M342.969,-187.7C342.969,-193.7 336.969,-199.7 330.969,-199.7"/>
<polyline fill="none" stroke="black" points="330.969,-199.7 230.873,-199.7 "/>
<path fill="none" stroke="black" d="M230.873,-199.7C224.873,-199.7 218.873,-193.7 218.873,-187.7"/>
<polyline fill="none" stroke="black" points="218.873,-187.7 218.873,-12.5 "/>
<path fill="none" stroke="black" d="M218.873,-12.5C218.873,-6.5 224.873,-0.5 230.873,-0.5"/>
<text text-anchor="middle" x="280.921" y="-181.7" font-family="Times,serif" font-size="14.00">DomainsController</text>
<polyline fill="none" stroke="black" points="218.873,-174.9 342.969,-174.9 "/>
<text text-anchor="start" x="226.873" y="-156.9" font-family="Times,serif" font-size="14.00">create</text>
<text text-anchor="start" x="226.873" y="-140.1" font-family="Times,serif" font-size="14.00">destroy</text>
<text text-anchor="start" x="226.873" y="-123.3" font-family="Times,serif" font-size="14.00">edit</text>
<text text-anchor="start" x="226.873" y="-106.5" font-family="Times,serif" font-size="14.00">index</text>
<text text-anchor="start" x="226.873" y="-89.7" font-family="Times,serif" font-size="14.00">new</text>
<text text-anchor="start" x="226.873" y="-72.9" font-family="Times,serif" font-size="14.00">show</text>
<text text-anchor="start" x="226.873" y="-56.1" font-family="Times,serif" font-size="14.00">update</text>
<polyline fill="none" stroke="black" points="218.873,-49.3 342.969,-49.3 "/>
<polyline fill="none" stroke="black" points="218.873,-25.3 342.969,-25.3 "/>
<text text-anchor="start" x="226.873" y="-7.3" font-family="Times,serif" font-size="14.00">_layout</text>
</g>
<!-- ApplicationController&#45;&gt;DomainsController -->
<g id="edge4" class="edge"><title>ApplicationController&#45;&gt;DomainsController</title>
<path fill="none" stroke="black" d="M234.212,-210.012C235.611,-206.72 237.045,-203.347 238.5,-199.922"/>
</g>
<!-- StaticPagesController -->
<g id="node5" class="node"><title>StaticPagesController</title>
<polyline fill="none" stroke="black" points="86.9502,-352.761 201.04,-352.761 "/>
<path fill="none" stroke="black" d="M201.04,-352.761C207.04,-352.761 213.04,-358.761 213.04,-364.761"/>
<polyline fill="none" stroke="black" points="213.04,-364.761 213.04,-472.761 "/>
<path fill="none" stroke="black" d="M213.04,-472.761C213.04,-478.761 207.04,-484.761 201.04,-484.761"/>
<polyline fill="none" stroke="black" points="201.04,-484.761 86.9502,-484.761 "/>
<path fill="none" stroke="black" d="M86.9502,-484.761C80.9502,-484.761 74.9502,-478.761 74.9502,-472.761"/>
<polyline fill="none" stroke="black" points="74.9502,-472.761 74.9502,-364.761 "/>
<path fill="none" stroke="black" d="M74.9502,-364.761C74.9502,-358.761 80.9502,-352.761 86.9502,-352.761"/>
<text text-anchor="middle" x="143.995" y="-466.761" font-family="Times,serif" font-size="14.00">StaticPagesController</text>
<polyline fill="none" stroke="black" points="74.9502,-459.961 213.04,-459.961 "/>
<text text-anchor="start" x="82.9502" y="-441.961" font-family="Times,serif" font-size="14.00">faq</text>
<text text-anchor="start" x="82.9502" y="-425.161" font-family="Times,serif" font-size="14.00">home</text>
<text text-anchor="start" x="82.9502" y="-408.361" font-family="Times,serif" font-size="14.00">results</text>
<polyline fill="none" stroke="black" points="74.9502,-401.561 213.04,-401.561 "/>
<polyline fill="none" stroke="black" points="74.9502,-377.561 213.04,-377.561 "/>
<text text-anchor="start" x="82.9502" y="-359.561" font-family="Times,serif" font-size="14.00">_layout</text>
</g>
<!-- ApplicationController&#45;&gt;StaticPagesController -->
<g id="edge6" class="edge"><title>ApplicationController&#45;&gt;StaticPagesController</title>
<path fill="none" stroke="black" d="M191.639,-309.092C185.653,-322.871 179.054,-338.061 172.724,-352.632"/>
</g>
<!-- UsersController -->
<g id="node6" class="node"><title>UsersController</title>
<polyline fill="none" stroke="black" points="331.269,-229.464 412.697,-229.464 "/>
<path fill="none" stroke="black" d="M412.697,-229.464C418.697,-229.464 424.697,-235.464 424.697,-241.464"/>
<polyline fill="none" stroke="black" points="424.697,-241.464 424.697,-416.664 "/>
<path fill="none" stroke="black" d="M424.697,-416.664C424.697,-422.664 418.697,-428.664 412.697,-428.664"/>
<polyline fill="none" stroke="black" points="412.697,-428.664 331.269,-428.664 "/>
<path fill="none" stroke="black" d="M331.269,-428.664C325.269,-428.664 319.269,-422.664 319.269,-416.664"/>
<polyline fill="none" stroke="black" points="319.269,-416.664 319.269,-241.464 "/>
<path fill="none" stroke="black" d="M319.269,-241.464C319.269,-235.464 325.269,-229.464 331.269,-229.464"/>
<text text-anchor="middle" x="371.983" y="-410.664" font-family="Times,serif" font-size="14.00">UsersController</text>
<polyline fill="none" stroke="black" points="319.269,-403.864 424.697,-403.864 "/>
<text text-anchor="start" x="327.269" y="-385.864" font-family="Times,serif" font-size="14.00">create</text>
<text text-anchor="start" x="327.269" y="-369.064" font-family="Times,serif" font-size="14.00">destroy</text>
<text text-anchor="start" x="327.269" y="-352.264" font-family="Times,serif" font-size="14.00">edit</text>
<text text-anchor="start" x="327.269" y="-335.464" font-family="Times,serif" font-size="14.00">index</text>
<text text-anchor="start" x="327.269" y="-318.664" font-family="Times,serif" font-size="14.00">new</text>
<text text-anchor="start" x="327.269" y="-301.864" font-family="Times,serif" font-size="14.00">show</text>
<text text-anchor="start" x="327.269" y="-285.064" font-family="Times,serif" font-size="14.00">update</text>
<polyline fill="none" stroke="black" points="319.269,-278.264 424.697,-278.264 "/>
<polyline fill="none" stroke="black" points="319.269,-254.264 424.697,-254.264 "/>
<text text-anchor="start" x="327.269" y="-236.264" font-family="Times,serif" font-size="14.00">_layout</text>
</g>
<!-- ApplicationController&#45;&gt;UsersController -->
<g id="edge8" class="edge"><title>ApplicationController&#45;&gt;UsersController</title>
<path fill="none" stroke="black" d="M311.023,-302.408C313.705,-303.581 316.356,-304.74 318.965,-305.881"/>
</g>
</g>
</svg>
