<?xml version="1.0" encoding="UTF-8" standalone="no"?>
<!DOCTYPE svg PUBLIC "-//W3C//DTD SVG 1.1//EN"
 "http://www.w3.org/Graphics/SVG/1.1/DTD/svg11.dtd">
<!-- Generated by graphviz version 2.28.0 (20130121.0301)
 -->
<!-- Title: models_diagram Pages: 1 -->
<svg width="699pt" height="194pt"
 viewBox="0.00 0.00 699.00 194.00" xmlns="http://www.w3.org/2000/svg" xmlns:xlink="http://www.w3.org/1999/xlink">
<g id="graph1" class="graph" transform="scale(1 1) rotate(0) translate(4 190)">
<title>models_diagram</title>
<polygon fill="white" stroke="white" points="-4,5 -4,-190 696,-190 696,5 -4,5"/>
<!-- _diagram_info -->
<g id="node1" class="node"><title>_diagram_info</title>
<text text-anchor="start" x="7.31226" y="-119" font-family="Times,serif" font-size="13.00">Models diagram</text>
<text text-anchor="start" x="7.31226" y="-103.4" font-family="Times,serif" font-size="13.00">Date: Jan 20 2013 &#45; 21:08</text>
<text text-anchor="start" x="7.31226" y="-87.8" font-family="Times,serif" font-size="13.00">Migration version: 20130120125815</text>
<text text-anchor="start" x="7.31226" y="-72.2" font-family="Times,serif" font-size="13.00">Generated by RailRoady 1.1.0</text>
<text text-anchor="start" x="7.31226" y="-56.6" font-family="Times,serif" font-size="13.00">http://railroady.prestonlee.com</text>
</g>
<!-- Alert -->
<g id="node2" class="node"><title>Alert</title>
<polyline fill="none" stroke="black" points="236.495,-34.6 345.505,-34.6 "/>
<path fill="none" stroke="black" d="M345.505,-34.6C351.505,-34.6 357.505,-40.6 357.505,-46.6"/>
<polyline fill="none" stroke="black" points="357.505,-46.6 357.505,-139.4 "/>
<path fill="none" stroke="black" d="M357.505,-139.4C357.505,-145.4 351.505,-151.4 345.505,-151.4"/>
<polyline fill="none" stroke="black" points="345.505,-151.4 236.495,-151.4 "/>
<path fill="none" stroke="black" d="M236.495,-151.4C230.495,-151.4 224.495,-145.4 224.495,-139.4"/>
<polyline fill="none" stroke="black" points="224.495,-139.4 224.495,-46.6 "/>
<path fill="none" stroke="black" d="M224.495,-46.6C224.495,-40.6 230.495,-34.6 236.495,-34.6"/>
<text text-anchor="middle" x="291" y="-133.4" font-family="Times,serif" font-size="14.00">Alert</text>
<polyline fill="none" stroke="black" points="224.495,-126.6 357.505,-126.6 "/>
<text text-anchor="start" x="232.495" y="-108.6" font-family="Times,serif" font-size="14.00">id :integer</text>
<text text-anchor="start" x="232.495" y="-91.8" font-family="Times,serif" font-size="14.00">domain_id :integer</text>
<text text-anchor="start" x="232.495" y="-75" font-family="Times,serif" font-size="14.00">user_id :integer</text>
<text text-anchor="start" x="232.495" y="-58.2" font-family="Times,serif" font-size="14.00">created_at :datetime</text>
<text text-anchor="start" x="232.495" y="-41.4" font-family="Times,serif" font-size="14.00">updated_at :datetime</text>
</g>
<!-- Domain -->
<g id="node3" class="node"><title>Domain</title>
<polyline fill="none" stroke="black" points="387.546,-26.2 528.454,-26.2 "/>
<path fill="none" stroke="black" d="M528.454,-26.2C534.454,-26.2 540.454,-32.2 540.454,-38.2"/>
<polyline fill="none" stroke="black" points="540.454,-38.2 540.454,-147.8 "/>
<path fill="none" stroke="black" d="M540.454,-147.8C540.454,-153.8 534.454,-159.8 528.454,-159.8"/>
<polyline fill="none" stroke="black" points="528.454,-159.8 387.546,-159.8 "/>
<path fill="none" stroke="black" d="M387.546,-159.8C381.546,-159.8 375.546,-153.8 375.546,-147.8"/>
<polyline fill="none" stroke="black" points="375.546,-147.8 375.546,-38.2 "/>
<path fill="none" stroke="black" d="M375.546,-38.2C375.546,-32.2 381.546,-26.2 387.546,-26.2"/>
<text text-anchor="middle" x="458" y="-141.8" font-family="Times,serif" font-size="14.00">Domain</text>
<polyline fill="none" stroke="black" points="375.546,-135 540.454,-135 "/>
<text text-anchor="start" x="383.546" y="-117" font-family="Times,serif" font-size="14.00">id :integer</text>
<text text-anchor="start" x="383.546" y="-100.2" font-family="Times,serif" font-size="14.00">domainname :string</text>
<text text-anchor="start" x="383.546" y="-83.4" font-family="Times,serif" font-size="14.00">lastknownexpiry :datetime</text>
<text text-anchor="start" x="383.546" y="-66.6" font-family="Times,serif" font-size="14.00">lastchecked :datetime</text>
<text text-anchor="start" x="383.546" y="-49.8" font-family="Times,serif" font-size="14.00">created_at :datetime</text>
<text text-anchor="start" x="383.546" y="-33" font-family="Times,serif" font-size="14.00">updated_at :datetime</text>
</g>
<!-- User -->
<g id="node4" class="node"><title>User</title>
<polyline fill="none" stroke="black" points="570.495,-1 679.505,-1 "/>
<path fill="none" stroke="black" d="M679.505,-1C685.505,-1 691.505,-7 691.505,-13"/>
<polyline fill="none" stroke="black" points="691.505,-13 691.505,-173 "/>
<path fill="none" stroke="black" d="M691.505,-173C691.505,-179 685.505,-185 679.505,-185"/>
<polyline fill="none" stroke="black" points="679.505,-185 570.495,-185 "/>
<path fill="none" stroke="black" d="M570.495,-185C564.495,-185 558.495,-179 558.495,-173"/>
<polyline fill="none" stroke="black" points="558.495,-173 558.495,-13 "/>
<path fill="none" stroke="black" d="M558.495,-13C558.495,-7 564.495,-1 570.495,-1"/>
<text text-anchor="middle" x="625" y="-167" font-family="Times,serif" font-size="14.00">User</text>
<polyline fill="none" stroke="black" points="558.495,-160.2 691.505,-160.2 "/>
<text text-anchor="start" x="566.495" y="-142.2" font-family="Times,serif" font-size="14.00">id :integer</text>
<text text-anchor="start" x="566.495" y="-125.4" font-family="Times,serif" font-size="14.00">email :string</text>
<text text-anchor="start" x="566.495" y="-108.6" font-family="Times,serif" font-size="14.00">firstname :string</text>
<text text-anchor="start" x="566.495" y="-91.8" font-family="Times,serif" font-size="14.00">lastname :string</text>
<text text-anchor="start" x="566.495" y="-75" font-family="Times,serif" font-size="14.00">password :string</text>
<text text-anchor="start" x="566.495" y="-58.2" font-family="Times,serif" font-size="14.00">phone :string</text>
<text text-anchor="start" x="566.495" y="-41.4" font-family="Times,serif" font-size="14.00">userlevel :integer</text>
<text text-anchor="start" x="566.495" y="-24.6" font-family="Times,serif" font-size="14.00">created_at :datetime</text>
<text text-anchor="start" x="566.495" y="-7.8" font-family="Times,serif" font-size="14.00">updated_at :datetime</text>
</g>
</g>
</svg>
